<?xml version="1.0" encoding="UTF-8" standalone="no"?>
<!-- Created with Inkscape (http://www.inkscape.org/) -->

<svg
   xmlns:dc="http://purl.org/dc/elements/1.1/"
   xmlns:cc="http://creativecommons.org/ns#"
   xmlns:rdf="http://www.w3.org/1999/02/22-rdf-syntax-ns#"
   xmlns:svg="http://www.w3.org/2000/svg"
   xmlns="http://www.w3.org/2000/svg"
   xmlns:sodipodi="http://sodipodi.sourceforge.net/DTD/sodipodi-0.dtd"
   xmlns:inkscape="http://www.inkscape.org/namespaces/inkscape"
   version="1.1"
   id="svg27413"
   xml:space="preserve"
   width="800"
   height="800"
   viewBox="0 0 800 800"
   sodipodi:docname="sale-background-4.svg"
   inkscape:version="0.92.4 (5da689c313, 2019-01-14)"><metadata
     id="metadata27419"><rdf:RDF><cc:Work
         rdf:about=""><dc:format>image/svg+xml</dc:format><dc:type
           rdf:resource="http://purl.org/dc/dcmitype/StillImage" /><dc:title></dc:title></cc:Work></rdf:RDF></metadata><defs
     id="defs27417"><clipPath
       clipPathUnits="userSpaceOnUse"
       id="clipPath27429"><path
         d="M 0,600 H 600 V 0 H 0 Z"
         id="path27427"
         inkscape:connector-curvature="0" /></clipPath></defs><sodipodi:namedview
     pagecolor="#ffffff"
     bordercolor="#666666"
     borderopacity="1"
     objecttolerance="10"
     gridtolerance="10"
     guidetolerance="10"
     inkscape:pageopacity="0"
     inkscape:pageshadow="2"
     inkscape:window-width="724"
     inkscape:window-height="480"
     id="namedview27415"
     showgrid="false"
     inkscape:zoom="0.295"
     inkscape:cx="400"
     inkscape:cy="400"
     inkscape:window-x="0"
     inkscape:window-y="0"
     inkscape:window-maximized="0"
     inkscape:current-layer="g27421" /><g
     id="g27421"
     inkscape:groupmode="layer"
     inkscape:label="sale-background-4"
     transform="matrix(1.3333333,0,0,-1.3333333,0,800)"><g
       id="g27423"><g
         id="g27425"
         clip-path="url(#clipPath27429)"><path
           d="m 521.471,113.557 c 0.008,0.009 0.017,0.018 0.026,0.025 l -0.085,-0.07 c 0.018,0.015 0.04,0.029 0.059,0.045 m -45.537,137.782 c -0.73,0.419 -1.488,0.419 -2.271,0 -1.598,-0.839 -2.297,-2.171 -2.101,-3.991 0.084,-0.9 0.544,-1.488 1.385,-1.766 0.309,-0.112 0.617,-0.169 0.925,-0.169 0.869,0 1.634,0.407 2.291,1.22 0.659,0.811 0.987,1.667 0.987,2.564 0,0.979 -0.405,1.695 -1.216,2.142 m -31.913,-0.673 c -0.478,0 -0.885,-0.126 -1.22,-0.378 -1.067,-0.645 -1.597,-1.64 -1.597,-2.983 0,-1.404 0.504,-2.242 1.514,-2.522 1.118,-0.195 1.986,0.169 2.605,1.091 0.56,0.842 0.839,1.696 0.839,2.565 0,0.614 -0.169,1.134 -0.504,1.554 -0.447,0.448 -0.994,0.673 -1.637,0.673 m -166.119,0 c -0.477,0 -0.884,-0.126 -1.219,-0.378 -1.064,-0.645 -1.597,-1.64 -1.597,-2.983 0,-1.404 0.506,-2.242 1.512,-2.522 1.122,-0.195 1.99,0.169 2.607,1.091 0.56,0.842 0.84,1.696 0.84,2.565 0,0.614 -0.168,1.134 -0.504,1.554 -0.449,0.448 -0.994,0.673 -1.639,0.673 m -215.476,3.321 c -1.261,-0.198 -2.088,-1.134 -2.48,-2.817 1.205,0 2.955,0.014 5.254,0.041 -0.03,0.366 -0.114,0.884 -0.253,1.557 -0.421,1.007 -1.261,1.415 -2.521,1.219 m 53.622,0 c -1.261,-0.198 -2.088,-1.134 -2.481,-2.817 1.205,0 2.956,0.014 5.253,0.041 -0.028,0.366 -0.111,0.884 -0.252,1.557 -0.42,1.007 -1.26,1.415 -2.52,1.219 M 499.897,367.398 H 459.47 l -2.671,-12.821 38.467,-0.358 -6.412,-33.123 H 450.92 c -0.594,-3.071 -1.426,-7.852 -2.492,-14.343 h 44.7 v -0.178 l -6.232,-33.688 h -92.251 l 23.507,128.719 h 88.156 z M 484.001,241.584 c -2.635,-3.136 -6.234,-4.704 -10.799,-4.704 -0.702,0 -1.404,0.04 -2.101,0.124 -1.935,0.197 -3.714,0.854 -5.339,1.975 -1.737,1.176 -2.927,2.648 -3.573,4.412 -0.391,1.064 -0.586,2.2 -0.586,3.404 0,2.575 0.769,4.998 2.312,7.268 2.576,3.836 6.483,5.828 11.724,5.966 2.24,0.055 4.243,-0.35 6.008,-1.216 1.962,-0.955 3.405,-2.356 4.33,-4.203 0.671,-1.375 1.007,-2.929 1.007,-4.666 0,-3.192 -0.995,-5.98 -2.983,-8.36 m -29.772,-2.603 c -0.755,-4.09 -2.674,-6.976 -5.754,-8.657 -2.27,-1.235 -4.974,-1.849 -8.113,-1.849 -3.39,0 -6.457,0.683 -9.201,2.06 l 3.32,6.012 c 1.317,-1.037 2.858,-1.557 4.622,-1.557 1.149,0 2.157,0.254 3.025,0.758 0.869,0.504 1.568,1.303 2.101,2.394 0.197,0.421 0.547,1.415 1.049,2.983 h -0.041 c -1.568,-2.016 -3.725,-3.023 -6.469,-3.023 -3.365,0 -5.674,1.399 -6.935,4.205 -0.616,1.342 -0.924,2.842 -0.924,4.497 0,2.8 0.785,5.422 2.353,7.858 2.101,3.307 4.945,4.961 8.531,4.961 0.419,0 0.823,-0.029 1.217,-0.084 2.101,-0.252 3.713,-1.431 4.833,-3.536 0.029,-0.057 0.043,-0.097 0.043,-0.126 l 0.42,3.111 h 9.665 z m -37.547,12.189 h -3.322 l -2.562,-13.572 h -10.045 l 2.479,13.572 c -0.672,0.055 -1.582,0.084 -2.731,0.084 l 1.429,7.774 h 2.69 l 1.092,6.219 10.085,-0.126 -1.008,-6.178 3.361,-0.043 z m -22.354,0.464 c -1.432,1.343 -2.774,2.015 -4.036,2.015 -0.223,0 -0.462,-0.043 -0.714,-0.126 -0.252,-0.083 -0.42,-0.308 -0.506,-0.669 -0.139,-0.311 -0.027,-0.59 0.338,-0.842 0.868,-0.392 1.75,-0.77 2.648,-1.132 1.037,-0.45 1.849,-0.954 2.438,-1.514 1.092,-1.035 1.638,-2.421 1.638,-4.155 0,-0.644 -0.07,-1.303 -0.211,-1.974 -0.309,-1.428 -1.098,-2.679 -2.374,-3.757 -1.276,-1.078 -2.668,-1.784 -4.18,-2.121 -0.98,-0.196 -1.962,-0.293 -2.942,-0.293 -3.531,0 -6.921,1.205 -10.169,3.609 l 3.739,6.21 c 1.176,-1.094 2.031,-1.822 2.565,-2.185 1.064,-0.675 2.098,-1.024 3.109,-1.051 0.756,0 1.203,0.223 1.345,0.668 0.054,0.338 0,0.603 -0.168,0.801 -0.478,0.362 -1.177,0.768 -2.102,1.215 -1.037,0.475 -1.75,0.853 -2.144,1.134 -1.764,1.199 -2.648,2.893 -2.648,5.076 0,1.648 0.63,3.158 1.892,4.528 1.204,1.26 2.633,2.097 4.288,2.518 1.062,0.252 2.141,0.378 3.235,0.378 3.053,0 5.897,-0.92 8.531,-2.765 z m -21.231,-9.969 c -0.981,-1.401 -2.185,-2.497 -3.614,-3.282 -1.988,-1.065 -4.398,-1.598 -7.228,-1.598 -1.203,0 -2.437,0.097 -3.698,0.293 -2.158,0.563 -3.826,1.486 -5.001,2.778 -1.429,1.541 -2.143,3.492 -2.143,5.847 0,0.533 0.043,1.08 0.126,1.643 l 0.295,2.186 1.764,9.467 h 10.043 l -2.016,-11.396 c 0,-0.789 0.167,-1.362 0.504,-1.729 0.56,-0.335 1.19,-0.434 1.89,-0.292 0.589,0.252 1.024,0.742 1.305,1.471 0.11,0.281 0.263,0.925 0.461,1.935 l 1.89,10.011 h 9.793 l -2.439,-12.873 c -0.308,-1.572 -0.952,-3.06 -1.932,-4.461 m -77.523,31.328 0.536,4.097 22.617,125.016 47.015,-0.177 -15.672,-89.738 h 39.182 l -7.125,-39.198 -1.602,-0.355 z m 53.192,-25.15 -1.85,-10.34 -10.21,0.04 2.185,12.282 c 0.055,0.785 -0.098,1.345 -0.462,1.683 -0.533,0.362 -1.051,0.431 -1.555,0.209 -0.674,-0.311 -1.143,-0.877 -1.407,-1.707 -0.269,-0.831 -0.498,-1.625 -0.695,-2.385 l -1.849,-10.082 -0.378,-0.04 h -9.623 l 2.227,12.4 c 0.167,0.815 -0.042,1.42 -0.629,1.814 -0.337,0.222 -0.842,0.238 -1.514,0.041 -0.673,-0.338 -1.218,-1.128 -1.64,-2.367 l -0.504,-2.287 -1.721,-9.601 h -9.919 l 3.782,21.525 h 9.791 l -0.756,-3.235 c 2.157,2.657 4.567,3.987 7.229,3.987 0.7,0 1.4,-0.112 2.101,-0.336 1.035,-0.307 1.891,-0.937 2.563,-1.889 0.533,-0.727 0.855,-1.44 0.965,-2.14 2.298,2.909 4.904,4.365 7.817,4.365 0.504,0 1.024,-0.056 1.556,-0.169 1.092,-0.222 2.094,-0.722 3.004,-1.494 0.912,-0.769 1.505,-1.674 1.787,-2.711 0.224,-0.809 0.335,-1.693 0.335,-2.645 0,-1.01 -0.209,-2.648 -0.63,-4.918 m -60.652,-8.862 c -0.758,-4.09 -2.676,-6.976 -5.759,-8.657 -2.27,-1.235 -4.972,-1.849 -8.11,-1.849 -3.389,0 -6.458,0.683 -9.203,2.06 l 3.32,6.012 c 1.317,-1.037 2.858,-1.557 4.623,-1.557 1.149,0 2.158,0.254 3.026,0.758 0.867,0.504 1.567,1.303 2.1,2.394 0.197,0.421 0.547,1.415 1.051,2.983 h -0.042 c -1.569,-2.016 -3.726,-3.023 -6.472,-3.023 -3.361,0 -5.672,1.399 -6.934,4.204 -0.615,1.343 -0.923,2.843 -0.923,4.498 0,2.8 0.784,5.422 2.353,7.858 2.101,3.307 4.943,4.96 8.531,4.96 0.419,0 0.825,-0.028 1.218,-0.083 2.101,-0.252 3.712,-1.431 4.833,-3.536 0.028,-0.057 0.041,-0.097 0.041,-0.126 l 0.421,3.111 h 9.665 z m -24.337,12.657 -2.479,-14.124 -0.085,-0.042 -10.17,0.042 2.187,11.849 c 0.055,0.925 0.083,1.317 0.083,1.177 0,0.448 -0.139,0.813 -0.419,1.094 -0.365,0.278 -0.883,0.335 -1.555,0.169 -0.954,-0.45 -1.625,-1.249 -2.018,-2.397 -0.113,-0.283 -0.336,-1.318 -0.673,-3.111 l -1.68,-8.697 h -10.086 l 4.034,21.39 9.834,-0.045 c -0.335,-1.23 -0.616,-2.295 -0.84,-3.192 1.988,2.44 4.538,3.732 7.648,3.871 2.633,0.14 4.498,-0.796 5.588,-2.816 0.533,-0.954 0.798,-2.088 0.798,-3.404 0,-0.589 -0.054,-1.176 -0.167,-1.764 m -32.27,8.695 c -1.148,0 -2.171,0.293 -3.067,0.883 -1.009,0.645 -1.653,1.498 -1.934,2.564 -0.111,0.45 -0.167,0.913 -0.167,1.391 0,1.626 0.644,2.987 1.933,4.081 1.204,1.037 2.647,1.557 4.329,1.557 0.671,0 1.33,-0.1 1.974,-0.295 1.037,-0.421 1.842,-1.031 2.416,-1.831 0.575,-0.799 0.863,-1.733 0.863,-2.797 0,-0.787 -0.155,-1.488 -0.463,-2.106 -1.149,-2.3 -3.11,-3.447 -5.884,-3.447 m 0.421,-22.745 -0.462,-0.085 -9.708,0.085 4.118,21.355 10.044,-0.041 z m -12.297,13.159 -2.395,-13.244 -10.213,0.04 2.186,11.775 c 0,0.03 0.014,0.282 0.043,0.759 0.027,0.335 0.013,0.623 -0.043,0.861 -0.056,0.239 -0.167,0.441 -0.336,0.61 -0.448,0.364 -0.981,0.434 -1.597,0.21 -0.897,-0.309 -1.625,-1.348 -2.185,-3.121 l -1.008,-5.06 -1.093,-6.034 -0.337,-0.04 -9.791,0.085 6.136,32.753 10.001,-0.084 -3.151,-14.59 h 0.042 c 2.101,2.55 4.719,3.868 7.858,3.951 1.204,0.027 2.317,-0.241 3.341,-0.801 1.021,-0.56 1.771,-1.345 2.248,-2.353 0.392,-0.815 0.588,-1.793 0.588,-2.943 0,-0.785 -0.098,-1.709 -0.294,-2.774 m -30.423,0.423 -2.563,-13.572 h -10.044 l 2.479,13.572 c -0.671,0.055 -1.582,0.084 -2.731,0.084 l 1.429,7.774 h 2.689 l 1.094,6.219 10.085,-0.126 -1.009,-6.178 3.362,-0.043 -1.471,-7.73 z m -30.575,-22.102 h -11.01 l 0.253,0.504 7.312,11.895 -4.75,17.532 h 9.792 l 1.598,-9.258 c -0.042,0 -0.042,-0.012 0,-0.04 l 4.244,9.298 h 10.674 z m -13.855,22.314 c -1.065,0 -1.947,-0.281 -2.648,-0.842 -0.84,-0.811 -1.484,-2.495 -1.932,-5.042 l -1.387,-7.9 h -10.127 l 0.462,2.645 3.487,18.785 h 9.329 c -0.14,-0.645 -0.336,-1.61 -0.587,-2.899 1.568,2.245 3.557,3.37 5.967,3.37 0.84,0 1.652,-0.14 2.437,-0.423 l -1.638,-8.576 c -1.066,0.587 -2.186,0.882 -3.363,0.882 m -17.426,-4.162 h -14.499 c -0.111,-1.289 0.155,-2.228 0.8,-2.815 0.448,-0.393 1.036,-0.59 1.764,-0.59 1.204,0 2.199,0.59 2.984,1.767 l 7.984,-1.515 c -1.877,-3.28 -4.385,-5.425 -7.522,-6.433 -1.317,-0.421 -2.704,-0.63 -4.161,-0.63 -2.522,0 -4.819,0.616 -6.892,1.849 -2.801,1.682 -4.201,4.429 -4.201,8.245 0,2.605 0.741,5.017 2.227,7.231 1.485,2.216 3.445,3.816 5.883,4.794 1.624,0.646 3.334,0.97 5.127,0.97 3.809,0 6.696,-1.305 8.656,-3.912 1.317,-1.74 1.976,-3.996 1.976,-6.775 0,-0.673 -0.042,-1.401 -0.126,-2.186 m -37.317,-9.622 h -7.733 l -5.21,21.401 h 9.918 l 1.218,-9.762 4.329,9.762 h 10.464 z M 73.729,247.22 H 59.232 c -0.112,-1.289 0.154,-2.228 0.799,-2.815 0.448,-0.393 1.036,-0.59 1.764,-0.59 1.205,0 2.199,0.59 2.984,1.767 l 7.984,-1.515 c -1.877,-3.28 -4.385,-5.425 -7.522,-6.433 -1.317,-0.421 -2.704,-0.63 -4.16,-0.63 -2.522,0 -4.82,0.616 -6.892,1.849 -2.802,1.682 -4.202,4.429 -4.202,8.245 0,2.605 0.742,5.017 2.227,7.231 1.485,2.216 3.446,3.816 5.883,4.794 1.625,0.646 3.334,0.97 5.128,0.97 3.808,0 6.695,-1.305 8.655,-3.912 1.318,-1.74 1.975,-3.996 1.975,-6.775 0,-0.673 -0.041,-1.401 -0.126,-2.186 m -37.015,47.014 v 0.534 l 22.262,33.45 c 11.278,-13.297 22.44,-19.947 33.481,-19.947 1.542,0 3.028,0.118 4.453,0.356 1.898,0.239 3.295,1.069 4.185,2.494 0.89,1.426 1.097,2.91 0.623,4.453 -1.187,2.02 -4.038,3.801 -8.549,5.346 -8.549,2.968 -14.841,5.7 -18.877,8.195 -6.767,3.917 -11.399,8.846 -13.891,14.784 -2.494,5.938 -3.739,12.053 -3.739,18.349 0,10.332 3.59,19.595 10.774,27.792 7.182,8.193 15.88,13.24 26.09,15.14 5.105,0.948 10.211,1.425 15.316,1.425 17.807,0 33.54,-5.227 47.194,-15.679 v -0.716 l -17.631,-31.003 c -9.381,7.122 -17.394,11.336 -24.044,12.643 -3.205,0.593 -5.936,0.118 -8.191,-1.424 -1.545,-1.542 -2.138,-3.502 -1.78,-5.874 0.355,-0.831 1.958,-2.374 4.807,-4.628 7.478,-3.561 14.9,-7.062 22.262,-10.503 8.311,-4.983 13.593,-11.214 15.85,-18.689 1.188,-4.156 1.781,-8.368 1.781,-12.637 0,-13.293 -4.748,-24.152 -14.247,-32.575 -8.668,-7.712 -19.65,-12.34 -32.947,-13.883 -10.092,-1.189 -19.472,-0.595 -28.139,1.779 -11.636,3.201 -23.983,10.142 -37.043,20.818 m 173.62,107.872 h 51.469 l 17.096,-129.095 h -45.592 c -0.238,3.798 -0.594,9.437 -1.068,16.918 H 228.5 l -27.96,0.358 c -0.833,-1.901 -1.988,-4.781 -3.473,-8.64 -1.484,-3.858 -2.641,-6.738 -3.474,-8.636 H 144.085 Z M 600.3,493.042 c -10.068,2.237 -20.542,0.45 -31.607,0.071 -41.024,-1.38 -85.869,0.6 -123.379,2.13 11.755,0.7 27.393,-1.411 36.716,1.069 -2.569,0.968 -7.321,0.355 -8.805,2.117 9.216,3.61 27.559,0.606 38.178,3.191 -4.997,1.45 -10.835,0.013 -13.217,0 -3.02,-0.011 -7.744,0.737 -10.273,1.063 -24.279,3.148 -47.895,3.192 -74.912,3.192 -11.679,0 -24.476,0.843 -35.24,0 -4.243,-0.332 -8.903,-1.874 -13.236,-2.125 -10.203,-0.599 -20.785,0.807 -30.841,0 -6.152,-0.5 -11.333,-2.692 -17.606,-3.185 -13.498,-1.068 -27.783,0.225 -41.143,-1.075 -3.131,-0.293 -5.666,-1.723 -8.806,-2.124 -5.91,-0.742 -13.197,0.202 -16.166,0 -4.812,-0.311 -10.074,-1.842 -14.678,-2.123 -8.213,-0.506 -16.942,0.55 -24.963,0 -6.745,-0.468 -14.663,-2.53 -22.047,-3.198 -18.388,-1.649 -36.933,-6.096 -51.39,-5.309 -0.259,-5.903 -12.301,0.949 -11.756,-1.062 0.905,-0.062 1.75,-0.17 1.474,-1.068 -0.388,-1.499 -3.226,-1.212 -4.408,-2.124 -6.909,-0.618 -10.367,-1.144 -14.687,-2.129 -4.66,-1.062 -10.679,-3.442 -13.224,-4.254 -3.907,-1.249 -8.875,-2.024 -13.205,-3.198 -8.815,-2.38 -17.562,-5.715 -24.979,-7.445 -3.805,-0.881 -10.197,-4.504 -13.216,0 0.906,3.247 7.902,2.085 8.816,5.322 -4.451,-0.257 -10.712,-5.872 -13.231,-1.062 1.018,2.104 8.763,-0.662 7.349,3.185 -5.778,1.212 -10.204,-3.204 -11.748,1.068 0.467,2.499 4.545,2.38 5.882,4.26 -7.78,-1.262 -6.641,-2.63 -10.299,1.062 -3.639,3.686 -6.606,9.944 -11.747,7.445 3.242,-0.912 5.994,-7.645 2.951,-9.569 -3.019,4.553 -5.297,9.625 -11.75,11.694 -0.447,-2.088 1.976,-2.112 2.933,-3.187 1.19,-1.349 1.94,-3.878 2.933,-5.321 2.622,-3.804 10.523,-10.413 7.349,-13.829 -0.656,5.359 -4.831,6.801 -7.349,9.575 -3.251,3.573 -3.908,8.219 -8.807,10.637 3.752,-6.777 6.15,-10.418 10.273,-17.02 -0.249,0.411 0.915,1.237 1.467,0 0.156,-0.332 2.967,-4.085 2.951,-5.322 -0.018,-0.738 -1.718,-1.681 -1.485,-2.13 1.485,-2.749 9.816,-4.204 4.417,-7.439 -3.313,0.443 0.223,5.828 -4.417,5.321 -1.293,-3.173 4.588,-6.483 1.485,-7.451 -2.986,3.522 -3.763,8.626 -8.817,10.637 -2.018,-2.423 3.787,-4.004 0,-4.254 -3.38,4.505 -5.573,10.088 -8.805,14.891 -1.104,1.629 -1.823,3.566 -2.591,4.812 v -7.741 c 1.159,0.183 2.021,1.37 2.591,-0.262 -0.442,-2.868 6.131,-6.078 1.464,-8.514 0.083,2.196 -1.574,8.004 -4.055,5.697 v -0.452 c 4.017,-1.093 -1.807,-7.777 1.116,-7.363 0,0.588 1.18,1.206 1.475,0 -0.251,-3.167 3.397,-7.127 1.464,-11.705 -1.047,2.556 -2.336,5.803 -4.055,8.038 V 191.797 c 3.191,-0.511 7.636,-4.664 9.93,-2.086 -2.528,-0.049 -3.778,0.826 -4.408,2.129 9.972,1.48 15.827,0.307 22.038,-3.18 -4.95,-0.681 -13.645,1.358 -16.164,-1.061 10.23,-2.118 19.46,2.036 26.429,-3.198 -2.605,-0.242 -7.35,1.07 -5.865,-2.13 28.722,-4.011 54.952,-9.842 86.651,-11.699 0.206,-1.41 -5.97,-3.203 -1.467,-4.247 0.862,5.577 28.335,2.904 29.379,2.117 0.896,-0.672 -2.709,-2.054 0,-2.117 0.707,1.258 1.552,2.405 2.94,3.181 6.167,-1.032 14.482,0 19.089,0 1.551,0 3.838,-1.17 4.398,-1.064 0.467,0.094 0.967,3.868 4.417,2.13 -0.552,-3.453 -5.158,-2.162 -7.349,-3.185 -1.207,-0.57 0.465,-1.769 -1.466,-2.128 0.551,0.098 -0.759,2.366 -2.934,2.128 -1.914,-0.218 -1.38,-1.726 -2.941,-2.128 -0.421,2.184 -3.924,2.117 -5.874,3.183 -0.585,-1.829 2.174,-2.729 0,-3.183 -9.867,0.33 -15.706,1.016 -24.97,1.066 -2.562,0.007 -4.744,-1.294 -7.348,-1.066 -1.925,0.162 -1.994,1.122 -4.4,1.066 -2.657,-0.074 -3.38,-1.273 -5.883,-1.066 -0.327,0.024 -3.794,2.015 -4.398,2.128 -7.962,1.394 -15.897,0.15 -23.504,1.055 -2.278,0.277 -3.831,1.744 -5.865,2.13 -2.303,0.44 -5.039,-0.342 -7.35,0 -2.553,0.376 -4.709,2.623 -7.348,3.193 -1.795,0.387 -4.037,-0.294 -5.866,0 -0.559,0.092 -3.64,1.953 -4.415,2.124 -5.357,1.132 -8.384,0.286 -13.216,1.068 -1.663,0.262 -3.278,2.022 -4.415,2.122 -2.675,0.259 -3.313,-0.997 -5.865,-1.059 -1.649,-0.045 -2.278,1.498 -2.951,0 6.917,-1.256 2.778,-3.087 0,-5.317 10.195,0.929 12.558,-4.342 20.563,-2.131 -2.847,-3.551 0.536,-0.576 4.415,-1.066 1.934,-0.238 2.986,-1.833 4.418,-2.119 2.208,-0.454 5.174,0.562 7.332,0 0.397,-0.113 0.983,-1.91 1.466,-2.128 4.847,-2.131 10.885,0.085 14.697,0 2.855,-0.083 7.746,-1.652 11.74,-2.131 11.282,-1.318 20.192,-1.631 29.369,-3.188 -8.211,0.945 -5.469,-1.08 -7.339,-3.19 -5.685,1.586 -20.814,1.898 -26.422,0 13.897,-0.985 38.384,-1.224 54.342,-6.39 -6.15,-0.211 -22.186,0.946 -11.757,-2.13 -4.761,-0.598 -7.392,0.324 -8.824,2.13 0.139,-0.337 -3.287,-3.311 -5.865,-2.13 -0.932,0.439 2.743,2.18 0,2.13 -0.767,-0.012 -1.726,-2.179 -4.406,-2.13 -5.262,0.12 -10.188,4.254 -16.156,2.13 1.732,-0.155 4.173,0.188 4.406,-1.054 -22.15,1.192 -45.843,4.997 -64.63,5.313 2.191,0.176 5.435,-0.38 5.882,1.069 -12.575,-0.594 -22.063,6.696 -32.31,4.252 8.116,-1.921 17.182,-3.159 24.962,-5.321 -2.604,-0.242 -7.349,1.076 -5.883,-2.135 3.881,-1.649 24.004,-4.191 23.513,-1.054 -3.001,-0.911 -8.108,1.674 -4.416,2.121 5.676,-2.929 12.438,-2.086 19.097,-3.191 0.43,-0.067 2.242,-2.024 2.949,-2.13 2.588,-0.369 5.936,0.594 8.799,0 2,-0.4 4.243,-2.709 5.882,-3.179 4.831,-1.41 8.642,-0.418 13.214,-1.062 3.571,1.429 0.914,2.117 2.941,3.179 3.701,0.4 6.504,-1.712 10.282,-2.117 5.426,-0.601 12.559,1.094 20.563,1.055 10.066,-0.036 22.677,-1.511 32.303,0 0.801,0.131 -0.25,2.025 1.482,2.124 7.539,0.482 20.201,-1.53 30.829,-1.062 11.264,0.52 16.793,1.386 22.028,-3.179 -22.046,-3.277 -48.328,-3.215 -71.952,-4.254 -7.091,-0.317 -13.336,-2.378 -19.097,-1.066 1.13,0.236 2.898,0.022 2.933,1.066 -6.306,-2.747 -11.99,0.123 -16.157,-3.204 24.8,-0.488 53.055,1.643 82.245,3.204 5.606,0.295 14.964,0.632 22.028,1.055 16.07,0.975 39.255,6.11 52.883,3.199 -1.128,0.237 -3.07,-1.048 -2.934,-1.073 3.047,-0.432 5.22,1.974 7.341,0 -3.751,-0.477 -6.763,-1.493 -8.814,-3.181 5.226,-0.904 8.796,3.082 10.281,-1.066 -7.091,-0.19 -10.022,-3.382 -14.689,-5.316 6.96,0.543 5.867,1.335 2.941,-2.135 4.174,0.184 6.124,1.945 10.281,2.135 0.007,-1.069 -1.191,-1.274 -1.474,-2.135 4.942,-0.115 9.065,3.091 11.747,2.135 0.45,-0.165 -1.535,-2.135 -1.458,-2.135 4.037,-0.147 4.986,0.724 10.282,1.066 -0.085,-1.361 -1.881,-1.473 -1.474,-3.185 5.228,-1.657 0.906,3.61 4.408,3.185 3.042,-0.637 9.649,1.312 10.29,-1.066 -4.167,0.886 -3.822,-1.501 -7.349,-1.063 -1.82,-3.434 4.752,-0.811 2.94,-4.256 -2.398,0.783 -6.4,-2.11 -2.94,-2.122 0.196,1.751 10.083,1.751 10.272,0 -4.054,1.398 -5.027,-4.211 -2.923,-1.061 4.287,-0.288 4.501,2.402 8.806,2.124 -0.449,-1.287 4.243,-3.668 4.408,-1.063 -7.807,1.774 8.686,2.118 13.204,2.122 -2.473,-3.703 -0.533,-3.714 2.952,-5.321 -2.468,-1.469 -9.748,-4.908 -7.35,-6.378 4.469,4.392 18.796,5.492 19.096,9.577 7.815,0.725 10.405,5.234 20.564,4.252 -0.218,-1.259 -2.623,-2.409 0,-3.189 4.149,3.795 11.274,5.422 14.68,7.444 4.124,2.437 7.874,4.641 11.746,6.385 3.625,1.617 5.03,2.814 7.351,4.247 1.624,1.018 4.285,1.098 5.874,2.136 3.752,2.411 7.981,6.758 10.29,8.499 2.038,1.543 4.483,2.074 5.865,3.199 1.743,1.401 2.605,3.705 4.409,5.316 1.863,1.656 4.146,2.617 5.874,4.259 4.966,4.697 9.746,9.631 13.22,13.822 3.28,3.942 6.342,7.11 7.35,11.693 8.893,2.425 15.802,6.283 26.439,7.453 3.67,-10.145 -1.987,-20.457 -2.943,-30.851 -0.13,-1.343 1.614,-1.463 1.465,-3.183 -0.524,-6.311 -3.235,-14.269 -1.465,-20.207 0.466,-1.582 2.622,-2.48 2.943,-4.262 0.567,-3.215 -1.658,-7.561 1.465,-10.635 -0.259,2.941 2.26,3.658 4.398,2.129 -1.224,-1.237 -1.931,-2.852 -1.458,-5.314 7.978,1.629 2.821,-4.866 2.934,-5.319 -0.027,0.052 2.657,-1.784 2.94,-2.128 4.675,-5.847 -2.724,-12.884 -1.48,-20.213 8.974,-0.825 5.276,7.534 7.347,11.698 1.481,1.17 6.314,5.223 2.932,6.391 0.457,-1.291 -4.234,-3.673 -4.4,-1.068 0.709,4.44 4.812,6.445 8.816,8.509 -2.965,0.866 0.923,5.608 1.467,7.444 -5.521,0.812 -1.01,-5.644 -7.348,-4.255 0.188,1.769 -4.756,6.766 1.465,6.385 -0.198,-1.262 -2.606,-2.411 0,-3.196 6.279,2.803 6.934,7.161 7.35,9.572 4.544,-2.934 5.656,-9.023 4.396,-11.691 -0.052,-0.131 -2.913,0.098 -2.932,0 -0.207,-2.55 1.796,-5.029 1.467,-7.448 -0.197,-1.509 -2.45,-2.233 -2.931,-4.252 -0.398,-1.729 0.31,-3.59 0,-5.32 5.759,1.46 4.327,6.65 7.348,9.572 0.934,0.896 3.05,0.95 4.128,1.859 -1.104,-0.792 -0.322,4.322 1.753,3.46 0.915,-1.82 4.434,-1.764 5.867,-3.193 -0.878,-1.592 -7.386,-4.44 -4.4,-5.316 2.19,1.249 4.141,2.669 5.864,4.255 1.684,-3.341 -2.301,-2.592 -2.933,-4.255 4.47,-3.336 6.342,6.136 11.75,2.117 0.43,6.783 4.673,10.809 13.231,11.706 1.604,3.087 1.811,7.188 7.332,7.451 -0.243,-2.743 -6.23,-6.738 -2.934,-8.517 2.468,3.772 5.26,7.426 7.348,10.63 0.763,1.192 2.626,1.986 2.937,3.204 0.048,0.218 -2.359,0.778 -1.47,2.116 0.304,0.471 2.331,1.456 2.936,2.138 2.95,3.298 4.261,6.906 8.803,8.506 1.978,-7.84 -4.925,-14.839 -2.94,-19.143 4.346,3.23 2.845,10.711 7.347,13.815 4.41,-8.602 -4.674,-18.234 -2.931,-24.455 3.347,4.311 2.295,8.984 4.401,13.819 1.068,2.454 4.535,4.857 5.871,7.458 1.632,3.147 0.277,4.49 1.477,6.382 1.741,2.725 5.156,6.351 5.876,8.502 0.54,1.674 -0.58,3.658 0,5.316 0.143,0.423 2.749,2.603 2.931,3.197 0.687,2.185 0.463,4.583 0.772,6.894 v 265.482 c -3.638,-0.166 -7.077,0.047 -9.579,1.238 3.217,0.734 6.429,0.618 9.579,0.496 v 3.825 c -4.432,-0.214 -9.28,-0.715 -11.056,1.001 2.45,0.119 13.31,-0.587 8.816,1.056 -6.426,0.661 -11.747,2.13 -17.63,3.198 5.832,0.737 16.275,-1.856 17.63,2.117 -8.545,0.194 -16.233,-1.986 -23.504,0 4.45,1.406 12.594,0.112 16.165,2.136 -2.606,0.238 -7.358,-1.081 -5.874,2.118 4.906,-0.256 9.255,-2.28 11.75,1.068 -4.997,2.587 -10.354,-1.312 -14.694,2.124 4.678,1.586 13.7,0.011 17.625,2.13 -4.614,-1.218 -3.563,1.679 -5.874,2.13 -2.434,-1.862 -6.295,0.742 -10.281,1.062 -1.793,0.143 -2.072,-1.162 -4.4,-1.062 -7.299,0.312 -13.958,1.949 -17.632,2.123 1.106,2.405 8.229,0.418 11.748,1.062 2.063,-0.082 5.627,0.238 2.942,1.069 -2.44,-0.008 -4.897,0 -7.338,0 -1.485,0.837 -3.678,0.661 -5.883,3.197 6.839,1.15 12.127,-1.855 14.686,0 0.243,0.156 -11.919,2.13 -13.206,1.062 -1.888,0.056 -2.033,1.355 -4.414,1.063 -3.831,-2.605 -3.244,0.217 -4.398,1.061 -3.114,2.248 -15.197,-2.337 -14.698,2.129 8.739,0.051 18.82,-0.874 22.03,3.192 2.999,-0.968 9.64,-2.136 11.746,1.062 -4.848,-1.505 -3.659,2.167 -5.863,2.125 0.534,0.012 -1.899,-4.067 -5.883,-2.125 1.224,3.41 1.255,2.199 -1.469,4.254 13.766,0.217 28.895,-0.406 38.959,0.585 z M 227.965,355.466 213.719,320.738 h 16.562 z"
           style="fill:#f0037f;fill-opacity:1;fill-rule:nonzero;stroke:none"
           id="path27431"
           inkscape:connector-curvature="0" /></g></g></g></svg>